<svg width="100" height="100" viewBox="0 0 100 100" fill="none" xmlns="http://www.w3.org/2000/svg">
<g clip-path="url(#clip0_494_21)">
<path d="M89.3754 59.6457C88.7796 60.8124 87.9838 61.8624 87.0213 62.7499C85.6716 63.98 84.114 64.9605 82.4213 65.6457C78.2237 67.1704 73.6197 67.1468 69.4379 65.5791C67.4484 64.8096 65.6348 63.6459 64.1061 62.1581C62.5774 60.6702 61.3652 58.8888 60.5421 56.9207C60.3386 56.4392 60.1578 55.9484 60.0004 55.4499H90.9088C90.575 56.9084 90.0599 58.3194 89.3754 59.6499V59.6457ZM39.4171 56.9207C38.5945 58.8884 37.3829 60.6696 35.855 62.1574C34.327 63.6453 32.5143 64.8091 30.5254 65.5791C26.3425 67.1478 21.7368 67.1715 17.5379 65.6457C15.8452 64.9605 14.2877 63.98 12.9379 62.7499C11.9802 61.8596 11.1849 60.8092 10.5879 59.6457C9.90002 58.3197 9.38472 56.911 9.05461 55.4541H39.9588C39.8032 55.9541 39.6227 56.443 39.4171 56.9207ZM99.8379 49.5957C99.7639 48.9298 99.6498 48.2688 99.4963 47.6166L59.3546 47.5832C59.7805 43.8746 61.4609 40.4228 64.1171 37.7999C65.6296 36.3416 67.4088 35.1957 69.3671 34.4291C72.5113 33.0799 75.9965 32.7389 79.3426 33.453C82.6887 34.1672 85.731 35.9013 88.0504 38.4166L94.3879 32.2082C92.1408 29.7871 89.4132 27.8614 86.3796 26.5541C83.0259 25.1465 79.4162 24.4513 75.7796 24.5124C72.3479 24.4964 68.9454 25.143 65.7588 26.4166C62.7097 27.6345 59.9304 29.4411 57.5796 31.7332C55.233 34.0445 53.3579 36.7899 52.0588 39.8166C50.9915 42.282 50.3356 44.9057 50.1171 47.5832H49.8546C49.6352 44.904 48.9779 42.2789 47.9088 39.8124C46.6092 36.7872 44.7342 34.0433 42.3879 31.7332C40.0371 29.4411 37.2578 27.6345 34.2088 26.4166C27.5706 23.8264 20.1932 23.8726 13.5879 26.5457C10.5551 27.856 7.82895 29.7846 5.58378 32.2082L11.9171 38.4166C14.3007 35.9985 17.3405 34.3318 20.6609 33.6224C23.9813 32.913 27.4368 33.192 30.6004 34.4249C32.5588 35.1916 34.3421 36.3416 35.8504 37.7999C37.3838 39.2999 38.6004 41.0999 39.4296 43.0832C40.0379 44.5166 40.4379 46.0332 40.6171 47.5832L0.471277 47.6166C0.156942 49.0241 -0.000959625 50.4619 0.000443441 51.9041C-0.0168014 54.9176 0.46904 57.913 1.43794 60.7666C2.38772 63.5371 3.92245 66.0708 5.93794 68.1957C8.13794 70.5291 10.8129 72.3624 13.7713 73.5832C17.0896 74.8994 20.6353 75.5465 24.2046 75.4874C27.6379 75.5082 31.0379 74.8624 34.2213 73.5832C37.2722 72.3646 40.0529 70.5565 42.4046 68.2624C45.9506 64.7701 48.3933 60.3136 49.4296 55.4457H50.5671C51.6096 60.3125 54.0513 64.7687 57.5921 68.2666C59.9441 70.5592 62.7249 72.3658 65.7754 73.5832C68.9621 74.8568 72.3646 75.5034 75.7963 75.4874C79.3628 75.5454 82.9056 74.8983 86.2213 73.5832C89.1893 72.3669 91.863 70.53 94.0629 68.1957C96.0784 66.0708 97.6132 63.5371 98.5629 60.7666C99.5318 57.913 100.018 54.9176 100 51.9041C99.9891 51.1322 99.9348 50.3616 99.8379 49.5957Z" fill="#0FA958"/>
</g>
<defs>
<clipPath id="clip0_494_21">
<rect width="100" height="100" fill="white"/>
</clipPath>
</defs>
</svg>
