<svg width="60" height="60" viewBox="0 0 60 60" fill="none" xmlns="http://www.w3.org/2000/svg">
<path d="M54.375 1.40647H5.625C4.5189 1.39521 3.4535 1.82321 2.66259 2.59654C1.87168 3.36988 1.41985 4.42539 1.40625 5.53147V54.4783C1.42231 55.5828 1.87522 56.6359 2.66586 57.4072C3.45651 58.1785 4.5205 58.6052 5.625 58.594H54.375C55.4812 58.6027 56.5458 58.1733 57.3364 57.3995C58.1269 56.6257 58.5789 55.5704 58.5938 54.4643V5.5174C58.574 4.41457 58.1198 3.36409 57.3298 2.59431C56.5399 1.82452 55.478 1.39764 54.375 1.40647Z" fill="#0076B2"/>
<path d="M9.87227 22.8418H18.3613V50.1559H9.87227V22.8418ZM14.1191 9.24805C15.0928 9.24805 16.0446 9.53683 16.8541 10.0779C17.6636 10.6189 18.2944 11.3879 18.6668 12.2875C19.0392 13.1871 19.1364 14.177 18.9461 15.1319C18.7558 16.0867 18.2866 16.9637 17.5978 17.6519C16.909 18.34 16.0315 18.8084 15.0765 18.9978C14.1214 19.1872 13.1316 19.089 12.2324 18.7158C11.3331 18.3426 10.5647 17.711 10.0245 16.901C9.48422 16.0909 9.19634 15.1389 9.19727 14.1652C9.19851 12.8607 9.71761 11.61 10.6405 10.688C11.5634 9.76596 12.8146 9.24805 14.1191 9.24805ZM23.6863 22.8418H31.8238V26.5918H31.9363C33.0707 24.4449 35.8363 22.1809 39.966 22.1809C48.5629 22.1621 50.1566 27.8199 50.1566 35.1559V50.1559H41.6676V36.8668C41.6676 33.7027 41.6113 29.6293 37.2566 29.6293C32.902 29.6293 32.1613 33.0793 32.1613 36.6605V50.1559H23.6863V22.8418Z" fill="white"/>
</svg>
